<svg xmlns="http://www.w3.org/2000/svg" xmlns:xlink="http://www.w3.org/1999/xlink" xml:space="preserve" version="1.1" style="shape-rendering:geometricPrecision;text-rendering:geometricPrecision;image-rendering:optimizeQuality;" viewBox="0 0 846.66 1058.325" x="0px" y="0px" fill-rule="evenodd" clip-rule="evenodd">
  <defs>
    <style fill="white" type="text/css"></style>
  </defs>
  <g>
    <path fill="white" class="fil0" d="M385.04 269.82c22.07,-4.15 120.32,-6.28 134.15,11.92 11.14,14.62 10.21,63.35 9.48,82.02 13.39,0.45 33.73,2.38 49.24,7.41 32.81,10.62 29.35,26.89 18.06,51.59 -20.09,43.96 -114.53,196.08 -169.85,187.78 -46.53,-7.02 -179.98,-176.16 -162.26,-214.92 4.02,-8.81 16.31,-15.24 29.85,-19.81 4.77,-15.47 35.14,-25.02 49.39,-27.09 0.71,-10.04 2.48,-44.76 5.97,-52.38 3.86,-8.45 15.54,-13.83 24.78,-16.88 2.34,-4.5 5.96,-8.67 11.19,-9.64zm4.43 16.38c-8.12,15.39 -8.15,50.11 -7.78,67.86 -0.51,7.05 -5.53,12.2 -12.74,10.97 -0.42,-0.05 -33.73,-5.34 -58.77,15.12 -14.41,31.52 82.08,208.18 118.5,213.68 42.88,6.45 135.67,-142.64 151.88,-178.11 7.7,-16.85 12.62,-21.83 -7.89,-28.47 -16.28,-5.27 -38.86,-6.74 -50.26,-6.74 -6.29,0.02 -11.25,-5.35 -10.87,-11.55 0.79,-13.68 1.79,-67.07 -5.75,-76.99 -7.64,-10.04 -100.99,-8.1 -116.32,-5.77z" />
  </g>
</svg>