<svg xmlns:dc="http://purl.org/dc/elements/1.1/" xmlns:cc="http://creativecommons.org/ns#" xmlns:rdf="http://www.w3.org/1999/02/22-rdf-syntax-ns#" xmlns:svg="http://www.w3.org/2000/svg" xmlns="http://www.w3.org/2000/svg" xmlns:sodipodi="http://sodipodi.sourceforge.net/DTD/sodipodi-0.dtd" xmlns:inkscape="http://www.inkscape.org/namespaces/inkscape" viewBox="0 0 64 80" version="1.1" x="0px" y="0px">
    <g style="opacity:1">
        <path style="color:#ffffff;font-style:normal;font-variant:normal;font-weight:normal;font-stretch:normal;font-size:medium;line-height:normal;font-family:sans-serif;font-variant-ligatures:normal;font-variant-position:normal;font-variant-caps:normal;font-variant-numeric:normal;font-variant-alternates:normal;font-feature-settings:normal;text-indent:0;text-align:start;text-decoration:none;text-decoration-line:none;text-decoration-style:solid;text-decoration-color:#ffffff;letter-spacing:normal;word-spacing:normal;text-transform:none;writing-mode:lr-tb;direction:ltr;text-orientation:mixed;dominant-baseline:auto;baseline-shift:baseline;text-anchor:start;white-space:normal;shape-padding:0;clip-rule:nonzero;display:inline;overflow:visible;visibility:visible;opacity:1;isolation:auto;mix-blend-mode:normal;color-interpolation:sRGB;color-interpolation-filters:linearRGB;solid-color:#ffffff;solid-opacity:1;vector-effect:none;fill:#ffffff;fill-opacity:1;fill-rule:evenodd;stroke:none;stroke-width:2;stroke-linecap:butt;stroke-linejoin:miter;stroke-miterlimit:4;stroke-dasharray:none;stroke-dashoffset:0;stroke-opacity:1;color-rendering:auto;image-rendering:auto;shape-rendering:auto;text-rendering:auto;enable-background:accumulate" d="M 44.525391,39.052734 C 47.536578,39.052734 50,41.514203 50,44.525391 50,47.536578 47.536578,50 44.525391,50 c -3.011188,0 -5.472657,-2.463422 -5.472657,-5.474609 0,-3.011188 2.461469,-5.472657 5.472657,-5.472657 z m 0,2 c -1.930308,0 -3.472657,1.542349 -3.472657,3.472657 C 41.052734,46.455698 42.595083,48 44.525391,48 46.455698,48 48,46.455698 48,44.525391 48,42.595083 46.455698,41.052734 44.525391,41.052734 Z" />
        <path style="color:#ffffff;font-style:normal;font-variant:normal;font-weight:normal;font-stretch:normal;font-size:medium;line-height:normal;font-family:sans-serif;font-variant-ligatures:normal;font-variant-position:normal;font-variant-caps:normal;font-variant-numeric:normal;font-variant-alternates:normal;font-feature-settings:normal;text-indent:0;text-align:start;text-decoration:none;text-decoration-line:none;text-decoration-style:solid;text-decoration-color:white;letter-spacing:normal;word-spacing:normal;text-transform:none;writing-mode:lr-tb;direction:ltr;text-orientation:mixed;dominant-baseline:auto;baseline-shift:baseline;text-anchor:start;white-space:normal;shape-padding:0;clip-rule:nonzero;display:inline;overflow:visible;visibility:visible;opacity:1;isolation:auto;mix-blend-mode:normal;color-interpolation:sRGB;color-interpolation-filters:linearRGB;solid-color:#ffffff;solid-opacity:1;vector-effect:none;fill:#ffffff;fill-opacity:1;fill-rule:evenodd;stroke:none;stroke-width:2;stroke-linecap:butt;stroke-linejoin:miter;stroke-miterlimit:4;stroke-dasharray:none;stroke-dashoffset:0;stroke-opacity:1;color-rendering:auto;image-rendering:auto;shape-rendering:auto;text-rendering:auto;enable-background:accumulate" d="m 33.789062,14 c 3.011188,0 5.47461,2.463422 5.47461,5.474609 0,3.011188 -2.463422,5.472657 -5.47461,5.472657 -3.011187,0 -5.472656,-2.461469 -5.472656,-5.472657 C 28.316406,16.463422 30.777875,14 33.789062,14 Z m 0,2 c -1.930307,0 -3.472656,1.544302 -3.472656,3.474609 0,1.930308 1.542349,3.472657 3.472656,3.472657 1.930308,0 3.47461,-1.542349 3.47461,-3.472657 C 37.263672,17.544302 35.71937,16 33.789062,16 Z" />
        <path style="color:#ffffff;font-style:normal;font-variant:normal;font-weight:normal;font-stretch:normal;font-size:medium;line-height:normal;font-family:sans-serif;font-variant-ligatures:normal;font-variant-position:normal;font-variant-caps:normal;font-variant-numeric:normal;font-variant-alternates:normal;font-feature-settings:normal;text-indent:0;text-align:start;text-decoration:none;text-decoration-line:none;text-decoration-style:solid;text-decoration-color:#ffffff;letter-spacing:normal;word-spacing:normal;text-transform:none;writing-mode:lr-tb;direction:ltr;text-orientation:mixed;dominant-baseline:auto;baseline-shift:baseline;text-anchor:start;white-space:normal;shape-padding:0;clip-rule:nonzero;display:inline;overflow:visible;visibility:visible;opacity:1;isolation:auto;mix-blend-mode:normal;color-interpolation:sRGB;color-interpolation-filters:linearRGB;solid-color:#ffffff;solid-opacity:1;vector-effect:none;fill:#ffffff;fill-opacity:1;fill-rule:evenodd;stroke:none;stroke-width:2;stroke-linecap:butt;stroke-linejoin:miter;stroke-miterlimit:4;stroke-dasharray:none;stroke-dashoffset:0;stroke-opacity:1;color-rendering:auto;image-rendering:auto;shape-rendering:auto;text-rendering:auto;enable-background:accumulate" d="m 19.474609,28.316406 c 3.011188,0 5.472657,2.461469 5.472657,5.472656 0,3.011188 -2.461469,5.47461 -5.472657,5.47461 C 16.463422,39.263672 14,36.80025 14,33.789062 c 0,-3.011187 2.463422,-5.472656 5.474609,-5.472656 z m 0,2 C 17.544302,30.316406 16,31.858755 16,33.789062 c 0,1.930308 1.544302,3.47461 3.474609,3.47461 1.930308,0 3.472657,-1.544302 3.472657,-3.47461 0,-1.930307 -1.542349,-3.472656 -3.472657,-3.472656 z" />
        <path style="color:#ffffff;font-style:normal;font-variant:normal;font-weight:normal;font-stretch:normal;font-size:medium;line-height:normal;font-family:sans-serif;font-variant-ligatures:normal;font-variant-position:normal;font-variant-caps:normal;font-variant-numeric:normal;font-variant-alternates:normal;font-feature-settings:normal;text-indent:0;text-align:start;text-decoration:none;text-decoration-line:none;text-decoration-style:solid;text-decoration-color:#ffffff;letter-spacing:normal;word-spacing:normal;text-transform:none;writing-mode:lr-tb;direction:ltr;text-orientation:mixed;dominant-baseline:auto;baseline-shift:baseline;text-anchor:start;white-space:normal;shape-padding:0;clip-rule:nonzero;display:inline;overflow:visible;visibility:visible;opacity:1;isolation:auto;mix-blend-mode:normal;color-interpolation:sRGB;color-interpolation-filters:linearRGB;solid-color:#ffffff;solid-opacity:1;vector-effect:none;fill:#ffffff;fill-opacity:1;fill-rule:nonzero;stroke:none;stroke-width:2;stroke-linecap:round;stroke-linejoin:round;stroke-miterlimit:4;stroke-dasharray:none;stroke-dashoffset:0;stroke-opacity:1;color-rendering:auto;image-rendering:auto;shape-rendering:auto;text-rendering:auto;enable-background:accumulate" d="m 37.357422,22.042969 a 1.0001,1.0001 0 0 0 -0.695313,1.716797 l 3.578125,3.578125 c 0.211666,0.211667 0.378907,0.635152 0.378907,1.083984 0,0.448832 -0.167241,0.870364 -0.378907,1.082031 l -3.578125,3.578125 c -0.683071,0.683071 -0.964843,1.602818 -0.964843,2.496094 0,0.893276 0.281772,1.814976 0.964843,2.498047 l 3.578125,3.578125 a 1.0001,1.0001 0 1 0 1.414063,-1.414063 l -3.578125,-3.578125 c -0.211669,-0.211669 -0.378906,-0.635155 -0.378906,-1.083984 0,-0.448829 0.167237,-0.870362 0.378906,-1.082031 l 3.578125,-3.578125 c 0.683065,-0.683073 0.964844,-1.602821 0.964844,-2.496094 0,-0.893273 -0.281779,-1.814975 -0.964844,-2.498047 l -3.578125,-3.578125 a 1.0001,1.0001 0 0 0 -0.71875,-0.302734 z" />
        <path style="color:#ffffff;font-style:normal;font-variant:normal;font-weight:normal;font-stretch:normal;font-size:medium;line-height:normal;font-family:sans-serif;font-variant-ligatures:normal;font-variant-position:normal;font-variant-caps:normal;font-variant-numeric:normal;font-variant-alternates:normal;font-feature-settings:normal;text-indent:0;text-align:start;text-decoration:none;text-decoration-line:none;text-decoration-style:solid;text-decoration-color:#ffffff;letter-spacing:normal;word-spacing:normal;text-transform:none;writing-mode:lr-tb;direction:ltr;text-orientation:mixed;dominant-baseline:auto;baseline-shift:baseline;text-anchor:start;white-space:normal;shape-padding:0;clip-rule:nonzero;display:inline;overflow:visible;visibility:visible;opacity:1;isolation:auto;mix-blend-mode:normal;color-interpolation:sRGB;color-interpolation-filters:linearRGB;solid-color:#ffffff;solid-opacity:1;vector-effect:none;fill:#ffffff;fill-opacity:1;fill-rule:nonzero;stroke:none;stroke-width:2;stroke-linecap:round;stroke-linejoin:round;stroke-miterlimit:4;stroke-dasharray:none;stroke-dashoffset:0;stroke-opacity:1;color-rendering:auto;image-rendering:auto;shape-rendering:auto;text-rendering:auto;enable-background:accumulate" d="m 35.578125,35.697266 c -0.893276,0 -1.813023,0.281772 -2.496094,0.964843 l -3.578125,3.578125 c -0.211669,0.211669 -0.633202,0.378907 -1.082031,0.378907 -0.448829,0 -0.872315,-0.167238 -1.083984,-0.378907 l -3.578125,-3.578125 a 1.0001,1.0001 0 1 0 -1.414063,1.414063 l 3.578125,3.578125 c 0.683071,0.683071 1.604771,0.964844 2.498047,0.964844 0.893276,0 1.813023,-0.281773 2.496094,-0.964844 l 3.578125,-3.578125 c 0.211669,-0.211669 0.633202,-0.378906 1.082031,-0.378906 0.448829,0 0.872315,0.167237 1.083984,0.378906 l 3.578125,3.578125 a 1.0001,1.0001 0 1 0 1.414063,-1.414063 l -3.578125,-3.578125 c -0.683071,-0.683071 -1.604771,-0.964843 -2.498047,-0.964843 z" />
    </g>
</svg>