<?xml version="1.0" standalone="no"?>
<!DOCTYPE svg PUBLIC "-//W3C//DTD SVG 20010904//EN"
 "http://www.w3.org/TR/2001/REC-SVG-20010904/DTD/svg10.dtd">
<svg version="1.0" xmlns="http://www.w3.org/2000/svg"
 width="1280.000000pt" height="810.000000pt" viewBox="0 0 1280.000000 810.000000"
 preserveAspectRatio="xMidYMid meet">
<metadata>
Created by potrace 1.15, written by Peter Selinger 2001-2017
</metadata>
<g transform="translate(0.000000,810.000000) scale(0.100000,-0.100000)"
fill="white" stroke="none">
<path d="M2890 8042 c-81 -81 -448 -408 -820 -731 -337 -293 -402 -357 -602
-602 -255 -313 -424 -553 -508 -719 -131 -262 -373 -804 -428 -961 -29 -83
-98 -370 -227 -949 -61 -272 -69 -321 -100 -625 l-34 -329 95 -177 c124 -232
215 -423 254 -534 30 -84 32 -96 27 -190 -3 -55 -17 -147 -30 -205 -50 -213
-42 -198 -211 -393 l-153 -177 -51 -233 c-70 -319 -95 -474 -96 -593 -1 -96 0
-102 27 -138 41 -53 142 -134 287 -231 164 -109 189 -121 291 -139 220 -38
725 -46 861 -13 89 22 176 84 261 189 35 43 35 44 86 353 86 512 86 492 1 835
-84 340 -87 460 -16 619 21 44 31 78 25 82 -13 7 25 113 106 295 92 207 153
294 335 479 l98 100 339 180 338 180 148 3 149 4 29 48 29 47 162 7 c268 11
421 15 873 26 237 6 606 15 820 20 215 5 575 14 800 20 226 6 591 15 813 21
221 5 408 7 415 2 6 -4 42 -29 80 -55 l67 -48 368 -20 c202 -12 597 -33 877
-48 l510 -28 430 27 c237 15 615 39 840 54 432 28 525 29 1095 19 l355 -7 115
-54 115 -55 58 12 c90 17 224 66 284 102 34 20 72 56 100 93 79 105 171 319
203 475 18 88 24 314 11 428 -16 137 -34 191 -82 252 -47 60 -184 171 -289
234 l-75 45 -150 9 c-132 7 -156 6 -195 -9 -32 -13 -128 -24 -340 -40 -287
-21 -323 -22 -1340 -15 l-1045 7 -425 -51 c-1162 -139 -1421 -170 -1429 -170
-4 0 -27 -43 -52 -95 -41 -87 -59 -113 -59 -82 0 9 -23 11 -87 10 -49 -1 -394
-7 -768 -13 -374 -6 -912 -15 -1195 -20 -283 -5 -825 -15 -1205 -21 l-690 -12
-85 46 -85 45 -171 -5 -171 -6 -129 43 c-71 24 -177 62 -235 85 -93 37 -107
40 -116 26 -8 -13 -13 -11 -29 14 -36 56 -22 357 26 557 23 93 59 180 185 448
211 450 494 798 1331 1640 l293 295 22 83 c12 45 20 84 18 85 -8 7 -444 119
-464 120 -11 1 -146 -89 -300 -199 -313 -223 -317 -226 -294 -198 9 10 38 57
64 104 27 47 81 138 122 203 41 66 72 122 68 125 -6 6 -426 52 -455 50 -8 -1
-40 -26 -70 -56z"/>
</g>
</svg>
