<svg xmlns="http://www.w3.org/2000/svg" xmlns:xlink="http://www.w3.org/1999/xlink" xml:space="preserve" version="1.1" style="shape-rendering:geometricPrecision;text-rendering:geometricPrecision;image-rendering:optimizeQuality;" viewBox="0 0 846.66 1058.325" x="0px" y="0px" fill-rule="evenodd" clip-rule="evenodd">
  <defs>
    <style type="text/css"></style>
  </defs>
  <g>
    <path fill="white" class="fil0" d="M472.35 287.37c-36.28,-1.65 -77.92,18.24 -102.11,44.82 -3.16,3.48 0.78,7.95 4.78,6.19 38.65,-16.99 60.87,-22.5 99.5,-34.96 8.86,-2.86 7.11,-15.63 -2.17,-16.05zm166.01 108.43c14.56,89.88 -151.25,-50.68 -222.33,39.19 19.31,12.87 73.42,61.67 57.31,84.02 -12.05,16.83 -130.66,58.25 -154.2,57.44 -24.04,-1.18 -42.24,-10.93 -62.72,-23.45 -29.36,-17.61 -70.49,-194.55 -35.77,-218.7 21.05,-14.7 64.26,16.48 81.18,29.57 92.61,-128.94 309.86,-130.71 336.53,31.93zm-61.04 12.94c-60.51,-43 -133.48,-76.3 -183.95,12.25l11.42 6.8c47.93,-62.13 111.13,-37.18 172.53,-19.05zm47.87 -10.78c-23.96,-146.06 -237.3,-151.74 -316.22,-20.89 -2.19,3.46 -6.81,4.22 -9.95,1.65 -10.27,-8.15 -56.6,-43.17 -70.75,-33.44 -22.53,15.65 10.53,181.6 35.01,196.26 17.31,10.51 175.4,-41.96 183.01,-58.67 -1.27,-23.25 -65.65,-45.93 -66.95,-58.62 19.87,-85.9 122.29,-100.78 192.35,-36.51 8.71,6.83 59.16,45.13 53.5,10.22zm-162.73 113.27c2.71,-3.61 -5.37,-14.71 -7.62,-17.57 -23.6,22.28 -130.68,55.67 -166.3,61.11 10.92,6.52 18.35,7.72 31.14,8.35 19.62,0.86 134.07,-40.36 142.78,-51.89zm63.54 -210.67c-6.43,-2.69 -12.78,-4.02 -19.62,-5.2 -6.04,-1.05 -8.51,7.3 -2.55,9.27 7,2.31 13.61,4.12 20.96,4.8 5.55,0.53 5.47,-7.09 1.21,-8.87z" />
  </g>
</svg>