<svg xmlns="http://www.w3.org/2000/svg" xmlns:xlink="http://www.w3.org/1999/xlink" xml:space="preserve" version="1.1" style="shape-rendering:geometricPrecision;text-rendering:geometricPrecision;image-rendering:optimizeQuality;" viewBox="0 0 846.66 1058.325" x="0px" y="0px" fill-rule="evenodd" clip-rule="evenodd">
  <defs>
    <style type="text/css">
  </style>
  </defs>
  <g>
    <path fill="white" class="fil0" d="M543.67 369.79c15.05,-12.07 60.29,-45.57 79.66,-32.17 32.57,22.56 -10.41,203.43 -38.37,212.87 -23.99,10.55 -27.91,20.11 -57.81,21.6 -20.14,0.97 -158.37,-43.49 -152.73,-61.01 -1.88,-14.45 15.76,-26.99 16.83,-31.81 3.01,-13.69 26.8,-31.44 45.19,-43.37 -58.13,-80.83 -134.55,-12.76 -196.57,-12.76 -17.55,0 -31.1,-5.93 -27.68,-26.81 25.45,-155.24 240.89,-159.84 331.48,-26.54zm-128.25 104.14c2.5,4.59 6.2,8.92 10.07,12.42 2.8,2.53 -1.03,7.62 -4.08,5.28 -6.23,-4.77 -8.51,-8.15 -10.56,-15.77 -0.73,-2.72 3.2,-4.45 4.57,-1.93zm12.19 -8.18c12.59,9.22 22.93,21.53 33.79,32.67 3.13,3.21 -1.62,7.91 -4.9,4.9 -11.21,-10.31 -23.7,-20.09 -33.08,-32.14 -2.19,-2.81 0.73,-7.97 4.19,-5.43zm19.44 -4.7c21.18,12.08 38.37,31.05 53.63,49.77 2.85,3.49 -1.92,8.5 -5.03,5.03 -16.24,-18.13 -35.2,-32.68 -52.91,-49.22 -3,-2.8 0.85,-7.56 4.31,-5.58zm44.69 15.66c16.37,14.41 30.88,30.58 45.82,46.46 2.8,2.97 -1.57,7.37 -4.48,4.48 -15.5,-15.34 -31.29,-30.26 -45.29,-47 -2.29,-2.75 1.22,-6.34 3.95,-3.94zm53.65 33.7c6.4,5.69 8.98,8.06 13.75,15.35 1.49,2.27 -1.65,4.12 -3.47,2.68 -7.03,-5.56 -8.84,-8.17 -14.05,-15.12 -1.72,-2.29 1.85,-4.63 3.77,-2.91zm30.85 -4.43c8.09,-27.69 16.27,-52.93 18.05,-82.05 0.27,-4.48 7.63,-6.09 8.31,-1.13 3.99,29.38 1.15,62.4 -14.59,88.14 -3.77,6.16 -13.86,2.17 -11.77,-4.96zm-259.34 -199.62c6.43,-2.69 12.78,-4.02 19.62,-5.2 6.04,-1.05 8.51,7.3 2.55,9.27 -7,2.31 -13.61,4.12 -20.96,4.8 -5.55,0.53 -5.47,-7.09 -1.21,-8.87zm53.65 -13.19c36.28,-1.65 77.92,18.24 102.11,44.82 3.16,3.48 -0.78,7.95 -4.78,6.19 -38.65,-16.99 -54.91,-29.77 -99.5,-34.96 -8.86,-2.86 -7.11,-15.63 2.17,-16.05zm69.98 140.11c8.93,-5.63 15.93,-9.55 17.46,-10.39 1.53,-26.08 -64.98,-61.71 -94.06,-61.71 -64.35,0 -89.73,44.09 -119.9,56.84 64.85,-4.44 138.31,-66.09 196.5,15.26zm-218.13 -18.71c23.02,9.72 85,-68.57 141.86,-61.62 30.39,0 104.17,33.61 98.59,70.7 -0.7,6.55 -61.78,33.47 -66.8,56.72 -4.6,21.29 170.59,75.89 189.22,64.64 23.74,-14.25 63.77,-183.6 35.25,-203.35 -20,-13.82 -74.71,34.8 -77.8,34.18 2.06,-15.37 -224.36,-222.59 -325.68,21.29 -0.96,5.87 -1.23,14.67 5.36,17.44zm156.9 95.88c1.8,13.84 127.92,57.61 147.61,56.73 23.24,-1.16 26.1,-5.58 44.14,-15.38 -27.26,-1.23 -169.72,-42.02 -179.25,-65.16 -4.67,5.28 -13.47,16.37 -12.5,23.81z" />
  </g>
</svg>